<?xml version="1.0" encoding="UTF-8"?>
<svg id="_图层_1" data-name="图层 1" xmlns="http://www.w3.org/2000/svg" viewBox="0 0 1024 1024">
  <g>
    <path d="m645,275.5c.7.7.4,1.2-1,1.4-1.6.2-3.2-.6-4.1,1.2-.2.5-.4,1.3-.3,2.5.2,12.5.3,24.3.4,35.2,0,.8.1,1.6.3,2.5l-277.1.1.1-42.3c0-.3.2-.5.5-.5l281.2-.1Z" style="fill: #fcfefb;"/>
    <path d="m362.4,322.2c0,49,0,98-.1,147,0,13.3.2,26.7.5,40.1h-43.3c-.2,0-.4-.2-.4-.4h0v-186c0-.5.2-.8.8-.8l42.5.1Z" style="fill: #fcfefb;"/>
    <path d="m425.8,349.1c0,.9-.7,1.7-1.7,1.7h0l-19.3.1c-.9,0-1.7-.7-1.7-1.7h0v-11.5c0-.9.7-1.7,1.7-1.7h0l19.3-.1c.9,0,1.7.7,1.7,1.7v11.5Z" style="fill: #fcfefb;"/>
    <path d="m464,393.5l.2,51.8c0,.2-.1.3-.3.3h0l-49.1.2c-.2,0-.3-.1-.3-.3l-.4-52.2c0-.2.1-.3.3-.3l49.4.2s.2.2.2.3Z" style="fill: #fcfefb;"/>
    <path d="m552.4,445c0,.4-.3.7-.6.7h0l-48.9.2c-.4,0-.7-.3-.7-.6l-.2-51.3c0-.4.3-.7.6-.7l48.9-.2c.4,0,.7.3.7.6h0l.2,51.3Z" style="fill: #fcfefb;"/>
    <path d="m592,393l51.7.2c.2,0,.3.1.3.3l.1,51.8c0,.2-.1.3-.3.3l-51.4.1c-.2,0-.3-.1-.3-.3l-.5-52.1c.1-.1.3-.3.4-.3h0Z" style="fill: #fcfefb;"/>
    <path d="m419.3,573.3l16.5-.5c.5,0,.9.4.9.9h0l.2,12.5c0,.5-.4.9-.9.9h0l-16.9-.1c-.5,0-.9-.4-.9-.9h0l.3-11.9c0-.5.4-.9.8-.9Z" style="fill: #fcfefb;"/>
  </g>
  <path d="m316.1,272.8c.3-.2.5-.5.5-.9.2-11.6.1-22.9,0-33.7-.2-9.6,5.9-13,14.3-13h400.2c2.1,0,4.1.5,6,1.4,5.1,2.6,6.7,7.2,6.6,12.7-.2,11.3-.1,22.3.2,33.2,0,.4.2.5.5.5h32.4c9,0,13.1,5.4,13.1,13.6-.2,86.6-.3,173.8,0,261.6,0,1.7-.5,3.5-1.4,5.3-2.6,5-6.4,6.1-11.8,6-11.1-.1-22-.1-32.4,0-.4,0-.7.3-.7.7-.1,11.9-.1,23.5,0,34.8,0,2.6-.4,4.7-1.3,6.3-3,5.3-7.2,6.6-13,6.6-56.9-.1-117.4-.1-181.5-.1-4.6,0-7,2.1-7,6.2-.1,7.3-.1,14.7.1,22.2.2,7.3-4.4,11.8-11.6,11.6-4.1-.1-8.4-.1-12.8,0-1.4,0-2.5,1.2-2.5,2.6-.1,9.2-.1,19.6,0,31.3,0,5.8-2.2,10-7.5,12.1-1.8.7-3.9,1.1-6.3,1.1-9.1,0-19.2-.1-30.3,0-5.3,0-5.2,4.8-5.1,8.6.1,8,.1,15.4-.1,22.2-.1,2.3-1.7,3.9-3.1,5.5-2.2,2.5-5.3,3.8-9.3,3.8h-74c-3.5,0-5.9-.4-7.2-1.2-4.8-3-5.8-7-5.8-12.6.1-36.6.1-72.5,0-107.9,0-1.8-.4-3.3-1.3-4.6-.2-.3-.5-.5-.9-.6-1.7-.3-3.3-.4-5.1-.4-9.3,0-18.7,0-28,.2-3.1,0-5.5-.4-7.2-1.3-4.7-2.5-6.1-6.9-6.1-12.1.1-12.3,0-23.8-.2-34.3,0-.3-.3-.6-.6-.6-11,0-22.5,0-34.6.1-4.7,0-8.7-3.4-10.2-7.4-.6-1.5-.9-3.9-.9-7.1.1-86,.1-170.6,0-253.9,0-2.3-.3-4.6-.1-7,.5-7.3,5.3-11.2,12.3-11.2,10.8,0,21.8-.1,33.1-.1.3,0,.4-.1.6-.2Zm328.9,2.7l-281.2.1c-.3,0-.5.2-.5.5l-.1,42.3c0,2-.3,3.3-.9,3.8l-42.6.1c-.5,0-.8.2-.8.8v186c0,.2.2.4.4.4h43.3c.3.5.5,1.1.5,1.6,0,15-.1,30.1-.1,45.3,0,.7.4,1.1,1.1,1.1l49.4-.4c.4,0,.6.2.6.5v101.2l.4,19.1c0,.2.2.4.4.4l43-.1c.5,0,1-.4,1-1h0l-.1-33c0-.6.5-1.2,1.1-1.2h0l23.6-.2c.3,0,.5-.2.5-.5l-.1-45.6c0-.3.2-.5.5-.5l52.3-.2c.3,0,.6-.3.6-.6h0l-.4-37.7c0-.3.2-.6.6-.6h157.6c.4,0,.7-.3.7-.7h0l-.4-46.5c0-.4.2-.6.6-.6l43.7-.1c.4,0,.7-.3.7-.7,0-9.6,0-19.7-.1-30.3-.2-48.7-.2-97.3.1-145.7,0-3.4,0-6.9-.1-10.3,0-.4-.3-.6-.7-.6h0l-43.1.3c-.4-.2-.6-1-.7-2.2l-.3-43.8c0-.3-.2-.5-.5-.5l-50,.1Z" style="fill: #010006;"/>
  <path d="m640.3,318.3h4.7c16-.2,31.9-.1,47.9.2.6,0,1.1.1,1.6.4.5.2.9.5,1.5.8.1,1.2.3,1.9.7,2.2v162.7c0,.7-.5,1.4-1.3,1.5s-1.6.2-2.5.2c-7.2-.2-13.8-.1-19.8.3-.7,0-1.2.6-1.2,1.2l-.2,16.1c0,.6-.5,1-1,1h0l-24-.2c-.6,0-1.1.5-1.1,1.1h0l-.1,13.9c0,.8-.6,1.4-1.4,1.4l-109.1.2c-.9,0-1.7.8-1.7,1.7l-.1,18.8c0,.7-.6,1.3-1.2,1.3l-40,.2c-.9,0-1.6.7-1.6,1.6v.1c.3,9.1.3,18.5,0,28.1,0,.9-.8,1.7-1.7,1.7h-20.5c-.6,0-1.1.5-1.1,1.1v.1c.2,4.3.1,8.7-.3,13.4,0,.3-.3.6-.6.6l-12.8.4c-.9,0-1.6.7-1.6,1.6l.1,39.6c0,.9-.6,1.8-1.5,2-1.2.3-2.5.5-3.8.6-6.1.2-12.5.3-19.2.2-.8,0-1.5.6-1.5,1.4h0v20.8c0,1.1-.8,2-1.8,2.2-3.5.7-6.9.7-9.9,0v-101.2c0-.4-.2-.5-.6-.5l-49.4.4c-.7,0-1.1-.3-1.1-1.1,0-15.2.1-30.3.1-45.3,0-.6-.2-1.1-.5-1.6-.4-13.4-.5-26.8-.5-40.1.1-49,.1-98,.1-147,.5-.5.8-1.8.9-3.8l277.1-.3Zm-214.5,19.3c0-.9-.7-1.7-1.7-1.7l-19.3.1c-.9,0-1.7.7-1.7,1.7h0v11.5c0,.9.7,1.7,1.7,1.7h0l19.3-.1c.9,0,1.7-.7,1.7-1.7h0v-11.5Zm38.2,55.9c0-.2-.1-.3-.3-.3l-49.4-.2c-.2,0-.3.1-.3.3l.4,52.2c0,.2.1.3.3.3l49.1-.2c.2,0,.3-.1.3-.3h0l-.1-51.8Zm88.3.2c0-.4-.3-.6-.7-.6h0l-48.9.2c-.4,0-.6.3-.6.7l.2,51.3c0,.4.3.6.7.6l48.9-.2c.4,0,.6-.3.6-.7h0l-.2-51.3Zm39.7-.7c-.2,0-.3.1-.3.3h0l.5,52.1c0,.2.1.3.3.3l51.4-.1c.2,0,.3-.1.3-.3l-.1-51.8c0-.2-.1-.3-.3-.3l-51.8-.2Zm-172.7,180.3c-.5,0-.9.4-.9.9l-.3,11.9c0,.5.4.9.9.9h0l16.9.1c.5,0,.9-.4.9-.9h0l-.2-12.5c0-.5-.4-.9-.9-.9h0l-16.4.5Z" style="fill: #ff6d60;"/>
  <path d="m414.2,658.7c3.1.7,6.4.7,9.9,0,1.1-.2,1.8-1.1,1.8-2.2v-20.8c0-.8.6-1.5,1.5-1.5h0c6.7.1,13.1,0,19.2-.2,1.3,0,2.5-.2,3.8-.6.9-.2,1.5-1.1,1.5-2l-.1-39.6c0-.9.7-1.6,1.6-1.6l12.8-.4c.3,0,.6-.3.6-.6.4-4.7.5-9.1.3-13.4,0-.6.4-1.1,1-1.1h20.6c.9,0,1.7-.7,1.7-1.7.4-9.6.4-19,0-28.1,0-.9.6-1.7,1.5-1.7h.1l40-.2c.7,0,1.2-.6,1.2-1.3l.1-18.8c0-.9.8-1.7,1.7-1.7l109.1-.3c.8,0,1.4-.6,1.4-1.4l.1-13.9c0-.6.5-1.1,1.1-1.1h0l24,.2c.6,0,1-.4,1-1h0l.2-16.1c0-.6.5-1.2,1.2-1.2,6-.3,12.6-.4,19.8-.3.8,0,1.6,0,2.5-.2.7-.1,1.3-.8,1.3-1.5v-162.7l43.1-.3c.4,0,.7.3.7.6h0c.1,3.4.1,6.9.1,10.3-.3,48.4-.4,97-.1,145.7.1,10.6.1,20.7.1,30.3,0,.4-.3.7-.7.7l-43.7.1c-.4,0-.6.2-.6.6l.4,46.5c0,.4-.3.7-.7.7h-157.6c-.3,0-.6.3-.6.6h0l.4,37.7c0,.3-.2.6-.6.6h0l-52.3.2c-.3,0-.5.2-.5.5l.1,45.6c0,.3-.2.5-.5.5l-23.6.2c-.6,0-1.1.5-1.1,1.2h0l.1,33c0,.5-.4,1-1,1h0l-43,.1c-.2,0-.4-.2-.4-.4l-.5-19Z" style="fill: #ec4b5b;"/>
  <path d="m696,319.6c-.5-.3-1-.6-1.5-.8-.5-.2-1-.3-1.6-.4-16-.3-32-.3-47.9-.2h-4.7c-.2-.9-.3-1.8-.3-2.5-.1-11-.2-22.7-.4-35.2,0-1.2.1-2,.3-2.5.9-1.8,2.5-.9,4.1-1.2,1.4-.2,1.8-.7,1-1.4l50.2-.2c.3,0,.5.2.5.5l.3,43.9Z" style="fill: #f6d2c1;"/>
</svg>